<svg xmlns="http://www.w3.org/2000/svg" version="1.1" xmlns:xlink="http://www.w3.org/1999/xlink" xmlns:svgjs="http://svgjs.dev/svgjs" width="128" height="128" viewBox="0 0 128 128"><g transform="matrix(0.8046875,0,0,0.8046875,12.760752631578946,23.910584228983332)"><svg viewBox="0 0 95 74" data-background-color="#333366" preserveAspectRatio="xMidYMid meet" height="99" width="128" xmlns="http://www.w3.org/2000/svg" xmlns:xlink="http://www.w3.org/1999/xlink"><g id="tight-bounds" transform="matrix(1,0,0,1,-0.24049999999999727,0.23908465068842588)"><svg viewBox="0 0 95.481 73.52183069862315" height="73.52183069862315" width="95.481"><g><svg viewBox="0 0 95.481 73.52183069862315" height="73.52183069862315" width="95.481"><g><svg viewBox="0 0 95.481 73.52183069862315" height="73.52183069862315" width="95.481"><g id="textblocktransform"><svg viewBox="0 0 95.481 73.52183069862315" height="73.52183069862315" width="95.481" id="textblock"><g><svg viewBox="0 0 95.481 73.52183069862315" height="73.52183069862315" width="95.481"><g><svg viewBox="0 0 95.481 73.52183069862315" height="73.52183069862315" width="95.481"><g><svg xmlns="http://www.w3.org/2000/svg" xmlns:xlink="http://www.w3.org/1999/xlink" version="1.1" x="0" y="0" viewBox="-732.2 -1223.3 196.10000000000002 151" enable-background="new -801.8 -1318.2 340.2 340.2" xml:space="preserve" height="73.52183069862315" width="95.481" class="icon-icon-0" data-fill-palette-color="accent" id="icon-0"><rect x="-686" y="-1194.9" width="9.3" height="71.4" fill="#ffffff" data-fill-palette-color="accent"></rect><rect x="-662.1" y="-1194.9" width="9.3" height="71.4" fill="#ffffff" data-fill-palette-color="accent"></rect><rect x="-648" y="-1194.9" width="9.3" height="71.4" fill="#ffffff" data-fill-palette-color="accent"></rect><rect x="-624.8" y="-1194.9" width="9.3" height="71.4" fill="#ffffff" data-fill-palette-color="accent"></rect><rect x="-686" y="-1118.4" width="9.3" height="9.3" fill="#ffffff" data-fill-palette-color="accent"></rect><rect x="-662.1" y="-1118.4" width="9.3" height="9.3" fill="#ffffff" data-fill-palette-color="accent"></rect><rect x="-648" y="-1118.4" width="9.3" height="9.3" fill="#ffffff" data-fill-palette-color="accent"></rect><rect x="-624.8" y="-1118.4" width="9.3" height="9.3" fill="#ffffff" data-fill-palette-color="accent"></rect><g fill="#ffffff" data-fill-palette-color="accent"><rect x="-610" y="-1194.9" width="9.3" height="71.4" fill="#ffffff" data-fill-palette-color="accent"></rect></g><g fill="#ffffff" data-fill-palette-color="accent"><rect x="-610" y="-1118.4" width="9.3" height="9.3" fill="#ffffff" data-fill-palette-color="accent"></rect></g><g fill="#ffffff" data-fill-palette-color="accent"><rect x="-591" y="-1194.9" width="9.3" height="71.4" fill="#ffffff" data-fill-palette-color="accent"></rect></g><g fill="#ffffff" data-fill-palette-color="accent"><rect x="-591" y="-1118.4" width="9.3" height="9.3" fill="#ffffff" data-fill-palette-color="accent"></rect></g><rect x="-574.1" y="-1194.9" width="9.3" height="94.2" fill="#ffffff" data-fill-palette-color="accent"></rect><rect x="-703.4" y="-1194.9" width="9.3" height="94.2" fill="#ffffff" data-fill-palette-color="accent"></rect><g fill="#ffffff" data-fill-palette-color="accent"><polygon points="-536.1,-1193.3 -545.4,-1193.3 -545.4,-1214 -566,-1214 -566,-1223.3 -536.1,-1223.3  " fill="#ffffff" data-fill-palette-color="accent"></polygon></g><g fill="#ffffff" data-fill-palette-color="accent"><polygon points="-536.1,-1072.3 -566,-1072.3 -566,-1081.6 -545.4,-1081.6 -545.4,-1102.3 -536.1,-1102.3  " fill="#ffffff" data-fill-palette-color="accent"></polygon></g><g fill="#ffffff" data-fill-palette-color="accent"><polygon points="-702.2,-1072.3 -732.2,-1072.3 -732.2,-1102.3 -722.9,-1102.3 -722.9,-1081.6 -702.2,-1081.6  " fill="#ffffff" data-fill-palette-color="accent"></polygon></g><g fill="#ffffff" data-fill-palette-color="accent"><polygon points="-722.9,-1193.3 -732.2,-1193.3 -732.2,-1223.3 -702.2,-1223.3 -702.2,-1214 -722.9,-1214  " fill="#ffffff" data-fill-palette-color="accent"></polygon></g></svg></g></svg></g></svg></g></svg></g></svg></g><g></g></svg></g><defs></defs></svg><rect width="95.481" height="73.52183069862315" fill="none" stroke="none" visibility="hidden"></rect></g></svg></g></svg>